<svg xmlns="http://www.w3.org/2000/svg" xmlns:xlink="http://www.w3.org/1999/xlink" width="500" zoomAndPan="magnify" viewBox="0 0 375 374.999991" height="500" preserveAspectRatio="xMidYMid meet" version="1.0"><defs><clipPath id="f74b52cc0c"><path d="M 92.289062 92.289062 L 282.789062 92.289062 L 282.789062 282.789062 L 92.289062 282.789062 Z M 92.289062 92.289062 " clip-rule="nonzero"/></clipPath></defs><g clip-path="url(#f74b52cc0c)"><path fill="#ffffff" d="M 204.808594 187.5 L 187.5 204.808594 L 170.1875 187.5 L 187.5 170.1875 Z M 187.5 135.566406 L 205.847656 153.914062 L 227.488281 132.277344 L 187.5 92.289062 L 147.511719 132.277344 L 169.148438 153.914062 Z M 135.566406 187.5 L 153.914062 169.148438 L 132.277344 147.511719 L 92.289062 187.5 L 132.277344 227.488281 L 153.914062 205.847656 Z M 239.429688 187.5 L 221.082031 205.847656 L 242.71875 227.488281 L 282.707031 187.5 L 242.71875 147.511719 L 221.082031 169.148438 Z M 187.5 239.429688 L 169.148438 221.082031 L 147.511719 242.71875 L 187.5 282.707031 L 227.488281 242.71875 L 205.847656 221.082031 Z M 187.5 239.429688 " fill-opacity="1" fill-rule="nonzero"/></g></svg>