<svg xmlns="http://www.w3.org/2000/svg" xmlns:xlink="http://www.w3.org/1999/xlink" width="500" zoomAndPan="magnify" viewBox="0 0 375 374.999991" height="500" preserveAspectRatio="xMidYMid meet" version="1.0"><defs><clipPath id="54cac820eb"><path d="M 102 57.589844 L 279 57.589844 L 279 317.089844 L 102 317.089844 Z M 102 57.589844 " clip-rule="nonzero"/></clipPath></defs><g clip-path="url(#54cac820eb)"><path fill="#ffffff" d="M 277.03125 222.933594 C 273.273438 208.46875 257.648438 184.171875 248.683594 171.152344 C 248.972656 172.597656 251.863281 183.589844 252.734375 189.957031 C 254.179688 200.082031 250.996094 209.339844 243.1875 217.148438 C 237.980469 222.355469 232.191406 226.984375 225.539062 230.746094 C 214.257812 236.820312 202.976562 243.183594 191.402344 248.972656 C 182.433594 253.597656 177.226562 259.964844 175.78125 268.640625 C 174.046875 279.347656 175.203125 290.050781 178.386719 300.753906 C 179.542969 304.804688 180.699219 309.144531 181.855469 313.191406 C 170.574219 300.753906 160.449219 288.3125 153.796875 273.558594 C 145.117188 254.757812 151.769531 234.507812 172.019531 222.066406 C 183.59375 214.835938 194.875 207.601562 206.734375 200.371094 C 227.273438 188.21875 241.449219 157.84375 230.457031 133.835938 C 221.199219 113.585938 207.023438 96.226562 187.644531 81.761719 C 176.359375 73.375 165.65625 64.695312 152.929688 57.75 C 154.375 60.933594 164.5 84.945312 164.5 95.359375 C 164.5 112.714844 157.847656 128.335938 148.011719 143.378906 C 137.308594 159.582031 124.578125 175.203125 114.164062 191.691406 C 92.179688 226.984375 101.433594 266.617188 137.015625 292.941406 C 150.613281 303.066406 165.945312 310.878906 182.726562 317.242188 C 183.015625 317.242188 183.304688 317.242188 183.882812 317.242188 C 187.933594 303.644531 198.636719 295.257812 213.679688 289.761719 C 221.777344 286.867188 229.300781 283.394531 237.109375 280.214844 C 246.367188 276.453125 254.757812 271.246094 262.566406 265.75 C 270.089844 260.253906 282.820312 244.632812 277.03125 222.933594 Z M 277.03125 222.933594 " fill-opacity="1" fill-rule="nonzero"/></g></svg>