<svg xmlns="http://www.w3.org/2000/svg" xmlns:xlink="http://www.w3.org/1999/xlink" width="500" zoomAndPan="magnify" viewBox="0 0 375 374.999991" height="500" preserveAspectRatio="xMidYMid meet" version="1.0"><defs><clipPath id="a4c91030e4"><path d="M 77.753906 66 L 297.503906 66 L 297.503906 309.308594 L 77.753906 309.308594 Z M 77.753906 66 " clip-rule="nonzero"/></clipPath></defs><g clip-path="url(#a4c91030e4)"><path fill="#ffffff" d="M 260.664062 237.921875 C 251.394531 237.921875 243.042969 241.519531 236.703125 247.308594 L 149.820312 196.644531 C 150.488281 193.898438 150.917969 191.035156 150.917969 188.109375 C 150.917969 185.179688 150.488281 182.316406 149.820312 179.570312 L 235.789062 129.394531 C 242.3125 135.492188 251.03125 139.269531 260.664062 139.269531 C 280.84375 139.269531 297.246094 122.871094 297.246094 102.6875 C 297.246094 82.507812 280.84375 66.105469 260.664062 66.105469 C 240.480469 66.105469 224.082031 82.507812 224.082031 102.6875 C 224.082031 105.617188 224.507812 108.480469 225.179688 111.226562 L 139.210938 161.402344 C 132.6875 155.304688 123.96875 151.527344 114.335938 151.527344 C 94.152344 151.527344 77.753906 167.925781 77.753906 188.109375 C 77.753906 208.289062 94.152344 224.691406 114.335938 224.691406 C 123.96875 224.691406 132.6875 220.910156 139.210938 214.8125 L 226.09375 265.480469 C 225.484375 268.039062 225.117188 270.722656 225.117188 273.464844 C 225.117188 293.097656 241.03125 309.011719 260.664062 309.011719 C 280.296875 309.011719 296.207031 293.097656 296.207031 273.464844 C 296.207031 253.832031 280.296875 237.921875 260.664062 237.921875 Z M 260.664062 237.921875 " fill-opacity="1" fill-rule="nonzero"/></g></svg>