<svg xmlns="http://www.w3.org/2000/svg" xmlns:xlink="http://www.w3.org/1999/xlink" width="500" zoomAndPan="magnify" viewBox="0 0 375 374.999991" height="500" preserveAspectRatio="xMidYMid meet" version="1.0"><defs><clipPath id="548e4752e9"><path d="M 81.433594 81.433594 L 293.683594 81.433594 L 293.683594 293.683594 L 81.433594 293.683594 Z M 81.433594 81.433594 " clip-rule="nonzero"/></clipPath></defs><g clip-path="url(#548e4752e9)"><path fill="#ffffff" d="M 187.53125 106.96875 L 204.34375 81.433594 L 212.433594 110.90625 L 236.292969 91.816406 L 234.894531 122.351562 L 263.492188 111.566406 L 252.707031 140.179688 L 283.242188 138.765625 L 264.152344 162.640625 L 293.625 170.730469 L 268.089844 187.53125 L 293.625 204.34375 L 264.152344 212.433594 L 283.242188 236.292969 L 252.707031 234.894531 L 263.492188 263.492188 L 234.894531 252.707031 L 236.292969 283.242188 L 212.433594 264.152344 L 204.34375 293.625 L 187.53125 268.089844 L 170.730469 293.625 L 162.640625 264.152344 L 138.765625 283.242188 L 140.179688 252.707031 L 111.566406 263.492188 L 122.351562 234.894531 L 91.816406 236.292969 L 110.90625 212.433594 L 81.433594 204.34375 L 106.96875 187.53125 L 81.433594 170.730469 L 110.90625 162.640625 L 91.816406 138.765625 L 122.351562 140.179688 L 111.566406 111.566406 L 140.179688 122.351562 L 138.765625 91.816406 L 162.640625 110.90625 L 170.730469 81.433594 Z M 187.53125 106.96875 " fill-opacity="1" fill-rule="nonzero"/></g></svg>