<svg xmlns="http://www.w3.org/2000/svg" xmlns:xlink="http://www.w3.org/1999/xlink" width="500" zoomAndPan="magnify" viewBox="0 0 375 374.999991" height="500" preserveAspectRatio="xMidYMid meet" version="1.0"><defs><clipPath id="e7ab0d0a05"><path d="M 78.695312 78.695312 L 296.195312 78.695312 L 296.195312 296.195312 L 78.695312 296.195312 Z M 78.695312 78.695312 " clip-rule="nonzero"/></clipPath></defs><g clip-path="url(#e7ab0d0a05)"><path fill="#ffffff" d="M 166.203125 195.652344 L 99.667969 252.859375 L 119.625 273.492188 L 178.355469 208.066406 L 178.207031 208.320312 L 171.613281 295.820312 L 200.3125 296.300781 L 195.578125 208.503906 L 195.652344 208.792969 L 252.859375 275.324219 L 273.492188 255.371094 L 208.066406 196.640625 L 208.320312 196.789062 L 295.820312 203.382812 L 296.300781 174.683594 L 208.503906 179.417969 L 208.792969 179.34375 L 275.324219 122.136719 L 255.371094 101.503906 L 196.640625 166.929688 L 196.789062 166.675781 L 203.382812 79.175781 L 174.683594 78.695312 L 179.417969 166.492188 L 179.34375 166.203125 L 122.136719 99.667969 L 101.503906 119.625 L 166.929688 178.355469 L 166.675781 178.207031 L 79.175781 171.613281 L 78.695312 200.3125 L 166.492188 195.578125 " fill-opacity="1" fill-rule="nonzero"/></g></svg>