<svg xmlns="http://www.w3.org/2000/svg" xmlns:xlink="http://www.w3.org/1999/xlink" width="500" zoomAndPan="magnify" viewBox="0 0 375 374.999991" height="500" preserveAspectRatio="xMidYMid meet" version="1.0"><defs><clipPath id="edb8bf3391"><path d="M 59.945312 173 L 160 173 L 160 203 L 59.945312 203 Z M 59.945312 173 " clip-rule="nonzero"/></clipPath><clipPath id="9337703c10"><path d="M 173 59.945312 L 203 59.945312 L 203 160 L 173 160 Z M 173 59.945312 " clip-rule="nonzero"/></clipPath><clipPath id="175748750d"><path d="M 215 173 L 314.945312 173 L 314.945312 203 L 215 203 Z M 215 173 " clip-rule="nonzero"/></clipPath><clipPath id="9d5d2ab51d"><path d="M 173 215 L 203 215 L 203 314.945312 L 173 314.945312 Z M 173 215 " clip-rule="nonzero"/></clipPath></defs><g clip-path="url(#edb8bf3391)"><path fill="#ffffff" d="M 59.945312 187.527344 L 159.488281 202.042969 L 139.160156 187.527344 L 159.488281 173.011719 Z M 59.945312 187.527344 " fill-opacity="1" fill-rule="nonzero"/></g><g clip-path="url(#9337703c10)"><path fill="#ffffff" d="M 173.011719 159.488281 L 187.527344 139.160156 L 202.042969 159.488281 L 187.527344 59.945312 Z M 173.011719 159.488281 " fill-opacity="1" fill-rule="nonzero"/></g><g clip-path="url(#175748750d)"><path fill="#ffffff" d="M 315.09375 187.527344 L 215.566406 173.011719 L 235.894531 187.511719 L 215.566406 202.042969 Z M 315.09375 187.527344 " fill-opacity="1" fill-rule="nonzero"/></g><g clip-path="url(#9d5d2ab51d)"><path fill="#ffffff" d="M 173.011719 215.566406 L 187.527344 315.105469 L 202.042969 215.566406 L 187.527344 235.890625 Z M 173.011719 215.566406 " fill-opacity="1" fill-rule="nonzero"/></g><path fill="#ffffff" d="M 155.183594 155.183594 L 156.691406 144.816406 L 110.03125 110.03125 L 144.816406 156.691406 Z M 155.183594 155.183594 " fill-opacity="1" fill-rule="nonzero"/><path fill="#ffffff" d="M 230.234375 156.691406 L 265.023438 110.03125 L 218.34375 144.816406 L 219.867188 155.183594 Z M 230.234375 156.691406 " fill-opacity="1" fill-rule="nonzero"/><path fill="#ffffff" d="M 219.867188 219.867188 L 218.34375 230.234375 L 265.023438 265.007812 L 230.234375 218.34375 Z M 219.867188 219.867188 " fill-opacity="1" fill-rule="nonzero"/><path fill="#ffffff" d="M 144.816406 218.34375 L 110.03125 265.023438 L 156.691406 230.234375 L 155.183594 219.867188 Z M 144.816406 218.34375 " fill-opacity="1" fill-rule="nonzero"/></svg>