<svg xmlns="http://www.w3.org/2000/svg" xmlns:xlink="http://www.w3.org/1999/xlink" width="500" zoomAndPan="magnify" viewBox="0 0 375 374.999991" height="500" preserveAspectRatio="xMidYMid meet" version="1.0"><path fill="#ffffff" d="M 182.851562 80.761719 C 179.277344 84.273438 176.007812 88.046875 173.042969 92.089844 C 166.875 100.179688 128.75 146.796875 109.640625 169.550781 C 92.652344 189.773438 92.851562 188.359375 106.402344 204.640625 C 123.695312 225.472656 164.550781 274.921875 171.324219 283.316406 C 182.445312 296.96875 185.480469 300 188.414062 300 C 192.054688 300 194.179688 297.574219 226.742188 258.035156 C 241.808594 239.628906 259.605469 218.089844 266.480469 210 C 279.730469 194.125 282.054688 190.28125 280.640625 186.4375 C 275.699219 179.296875 270.371094 172.453125 264.660156 165.910156 C 240.390625 136.582031 218.042969 109.484375 207.425781 96.335938 C 190.4375 75.402344 189.527344 74.898438 182.851562 80.761719 Z M 182.851562 80.761719 " fill-opacity="1" fill-rule="nonzero"/></svg>