<svg xmlns="http://www.w3.org/2000/svg" xmlns:xlink="http://www.w3.org/1999/xlink" width="500" zoomAndPan="magnify" viewBox="0 0 375 374.999991" height="500" preserveAspectRatio="xMidYMid meet" version="1.0"><defs><clipPath id="23d5c81c49"><path d="M 145.457031 63 L 229.457031 63 L 229.457031 111 L 145.457031 111 Z M 145.457031 63 " clip-rule="nonzero"/></clipPath><clipPath id="1348cf1e14"><path d="M 145.457031 94 L 229.457031 94 L 229.457031 142 L 145.457031 142 Z M 145.457031 94 " clip-rule="nonzero"/></clipPath><clipPath id="fcdd8219b1"><path d="M 145.457031 233 L 229.457031 233 L 229.457031 312 L 145.457031 312 Z M 145.457031 233 " clip-rule="nonzero"/></clipPath><clipPath id="959bdabc3d"><path d="M 0.539062 31 L 84.457031 31 L 84.457031 78.761719 L 0.539062 78.761719 Z M 0.539062 31 " clip-rule="nonzero"/></clipPath><clipPath id="491b5b6d46"><path d="M 0.539062 0.0390625 L 84.457031 0.0390625 L 84.457031 48 L 0.539062 48 Z M 0.539062 0.0390625 " clip-rule="nonzero"/></clipPath><clipPath id="531ea0267b"><rect x="0" width="85" y="0" height="79"/></clipPath><clipPath id="0ca7a93575"><path d="M 61.175781 145.457031 L 141 145.457031 L 141 229.457031 L 61.175781 229.457031 Z M 61.175781 145.457031 " clip-rule="nonzero"/></clipPath><clipPath id="190b64f802"><path d="M 1 0.539062 L 48 0.539062 L 48 84.457031 L 1 84.457031 Z M 1 0.539062 " clip-rule="nonzero"/></clipPath><clipPath id="b82c018d84"><path d="M 32 0.539062 L 79.640625 0.539062 L 79.640625 84.457031 L 32 84.457031 Z M 32 0.539062 " clip-rule="nonzero"/></clipPath><clipPath id="54351bd11a"><rect x="0" width="80" y="0" height="85"/></clipPath><clipPath id="3a8023c46a"><path d="M 234 145.457031 L 313 145.457031 L 313 229.457031 L 234 229.457031 Z M 234 145.457031 " clip-rule="nonzero"/></clipPath><clipPath id="65e872b101"><path d="M 32 0.539062 L 78.960938 0.539062 L 78.960938 84.457031 L 32 84.457031 Z M 32 0.539062 " clip-rule="nonzero"/></clipPath><clipPath id="9b34166d03"><path d="M 0.480469 0.539062 L 48 0.539062 L 48 84.457031 L 0.480469 84.457031 Z M 0.480469 0.539062 " clip-rule="nonzero"/></clipPath><clipPath id="1152a1a02b"><rect x="0" width="79" y="0" height="85"/></clipPath></defs><g clip-path="url(#23d5c81c49)"><path fill="#ffffff" d="M 182.824219 65.445312 L 147.472656 101.429688 C 145.453125 103.488281 145.484375 106.792969 147.539062 108.816406 C 149.597656 110.835938 152.902344 110.808594 154.925781 108.75 L 184.71875 78.421875 C 186.234375 76.875 188.703125 76.867188 190.234375 78.394531 L 220.621094 108.78125 C 222.660156 110.824219 225.96875 110.824219 228.007812 108.78125 C 229.027344 107.761719 229.539062 106.425781 229.539062 105.089844 C 229.539062 103.753906 229.027344 102.417969 228.007812 101.398438 L 192.015625 65.402344 C 189.464844 62.855469 185.351562 62.871094 182.824219 65.445312 Z M 182.824219 65.445312 " fill-opacity="1" fill-rule="nonzero"/></g><g clip-path="url(#1348cf1e14)"><path fill="#ffffff" d="M 182.824219 96.867188 L 147.472656 132.851562 C 145.453125 134.910156 145.484375 138.214844 147.539062 140.238281 C 149.597656 142.257812 152.90625 142.230469 154.925781 140.171875 L 184.71875 109.84375 C 186.234375 108.300781 188.707031 108.289062 190.234375 109.820312 L 220.621094 140.207031 C 222.660156 142.246094 225.96875 142.246094 228.007812 140.207031 C 229.027344 139.1875 229.539062 137.847656 229.539062 136.511719 C 229.539062 135.175781 229.027344 133.839844 228.007812 132.820312 L 192.015625 96.824219 C 189.464844 94.277344 185.351562 94.292969 182.824219 96.867188 Z M 182.824219 96.867188 " fill-opacity="1" fill-rule="nonzero"/></g><g clip-path="url(#fcdd8219b1)"><g transform="matrix(1, 0, 0, 1, 145, 233)"><g clip-path="url(#531ea0267b)"><g clip-path="url(#959bdabc3d)"><path fill="#ffffff" d="M 47.167969 76.550781 L 82.519531 40.5625 C 84.539062 38.507812 84.511719 35.199219 82.453125 33.179688 C 80.394531 31.15625 77.089844 31.1875 75.066406 33.246094 L 45.273438 63.574219 C 43.757812 65.117188 41.289062 65.128906 39.757812 63.597656 L 9.371094 33.210938 C 7.332031 31.171875 4.023438 31.171875 1.984375 33.210938 C 0.964844 34.230469 0.457031 35.566406 0.457031 36.902344 C 0.457031 38.238281 0.964844 39.578125 1.984375 40.597656 L 37.980469 76.589844 C 40.527344 79.140625 44.644531 79.121094 47.167969 76.550781 Z M 47.167969 76.550781 " fill-opacity="1" fill-rule="nonzero"/></g><g clip-path="url(#491b5b6d46)"><path fill="#ffffff" d="M 47.167969 45.125 L 82.519531 9.140625 C 84.539062 7.085938 84.511719 3.777344 82.453125 1.757812 C 80.394531 -0.265625 77.085938 -0.234375 75.066406 1.820312 L 45.273438 32.148438 C 43.757812 33.695312 41.289062 33.703125 39.757812 32.175781 L 9.371094 1.789062 C 7.332031 -0.25 4.023438 -0.25 1.984375 1.789062 C 0.964844 2.808594 0.457031 4.144531 0.457031 5.480469 C 0.457031 6.816406 0.964844 8.15625 1.984375 9.171875 L 37.980469 45.167969 C 40.527344 47.71875 44.644531 47.699219 47.167969 45.125 Z M 47.167969 45.125 " fill-opacity="1" fill-rule="nonzero"/></g></g></g></g><g clip-path="url(#0ca7a93575)"><g transform="matrix(1, 0, 0, 1, 61, 145)"><g clip-path="url(#54351bd11a)"><g clip-path="url(#190b64f802)"><path fill="#ffffff" d="M 3.09375 47.167969 L 39.082031 82.519531 C 41.140625 84.539062 44.445312 84.511719 46.46875 82.453125 C 48.488281 80.398438 48.457031 77.089844 46.402344 75.070312 L 16.070312 45.277344 C 14.527344 43.757812 14.519531 41.289062 16.046875 39.761719 L 46.433594 9.371094 C 48.476562 7.332031 48.476562 4.023438 46.433594 1.984375 C 45.414062 0.964844 44.078125 0.457031 42.742188 0.457031 C 41.40625 0.457031 40.066406 0.964844 39.050781 1.984375 L 3.054688 37.980469 C 0.503906 40.527344 0.523438 44.644531 3.09375 47.167969 Z M 3.09375 47.167969 " fill-opacity="1" fill-rule="nonzero"/></g><g clip-path="url(#b82c018d84)"><path fill="#ffffff" d="M 34.519531 47.167969 L 70.503906 82.519531 C 72.5625 84.539062 75.867188 84.511719 77.890625 82.453125 C 79.910156 80.394531 79.882812 77.089844 77.824219 75.066406 L 47.496094 45.273438 C 45.953125 43.757812 45.941406 41.289062 47.472656 39.757812 L 77.855469 9.371094 C 79.898438 7.332031 79.898438 4.023438 77.855469 1.984375 C 76.839844 0.964844 75.5 0.457031 74.164062 0.457031 C 72.828125 0.457031 71.492188 0.964844 70.472656 1.984375 L 34.476562 37.980469 C 31.925781 40.527344 31.945312 44.644531 34.519531 47.167969 Z M 34.519531 47.167969 " fill-opacity="1" fill-rule="nonzero"/></g></g></g></g><g clip-path="url(#3a8023c46a)"><g transform="matrix(1, 0, 0, 1, 234, 145)"><g clip-path="url(#1152a1a02b)"><g clip-path="url(#65e872b101)"><path fill="#ffffff" d="M 76.898438 47.167969 L 40.910156 82.519531 C 38.855469 84.539062 35.546875 84.511719 33.527344 82.453125 C 31.503906 80.398438 31.535156 77.089844 33.59375 75.070312 L 63.921875 45.277344 C 65.464844 43.757812 65.472656 41.289062 63.945312 39.761719 L 33.558594 9.371094 C 31.515625 7.332031 31.515625 4.023438 33.558594 1.984375 C 34.578125 0.964844 35.914062 0.457031 37.25 0.457031 C 38.585938 0.457031 39.925781 0.964844 40.941406 1.984375 L 76.9375 37.980469 C 79.488281 40.527344 79.46875 44.644531 76.898438 47.167969 Z M 76.898438 47.167969 " fill-opacity="1" fill-rule="nonzero"/></g><g clip-path="url(#9b34166d03)"><path fill="#ffffff" d="M 45.472656 47.167969 L 9.488281 82.519531 C 7.429688 84.539062 4.125 84.511719 2.101562 82.453125 C 0.0820312 80.394531 0.109375 77.089844 2.167969 75.066406 L 32.496094 45.273438 C 34.042969 43.757812 34.050781 41.289062 32.523438 39.757812 L 2.136719 9.371094 C 0.09375 7.332031 0.09375 4.023438 2.136719 1.984375 C 3.152344 0.964844 4.492188 0.457031 5.828125 0.457031 C 7.164062 0.457031 8.503906 0.964844 9.519531 1.984375 L 45.515625 37.980469 C 48.066406 40.527344 48.046875 44.644531 45.472656 47.167969 Z M 45.472656 47.167969 " fill-opacity="1" fill-rule="nonzero"/></g></g></g></g></svg>