<svg xmlns="http://www.w3.org/2000/svg" xmlns:xlink="http://www.w3.org/1999/xlink" width="500" zoomAndPan="magnify" viewBox="0 0 375 374.999991" height="500" preserveAspectRatio="xMidYMid meet" version="1.0"><defs><clipPath id="5f52e48f7a"><path d="M 80.199219 183 L 140 183 L 140 192 L 80.199219 192 Z M 80.199219 183 " clip-rule="nonzero"/></clipPath><clipPath id="48999e2462"><path d="M 235 183 L 294.699219 183 L 294.699219 192 L 235 192 Z M 235 183 " clip-rule="nonzero"/></clipPath><clipPath id="2a799508d7"><path d="M 183 80.199219 L 192 80.199219 L 192 140 L 183 140 Z M 183 80.199219 " clip-rule="nonzero"/></clipPath><clipPath id="b9cbca2a00"><path d="M 183 235 L 192 235 L 192 294.699219 L 183 294.699219 Z M 183 235 " clip-rule="nonzero"/></clipPath></defs><path fill="#ffffff" d="M 165.988281 165.867188 C 162.738281 160.265625 158.832031 155.164062 154.269531 150.5625 C 149.707031 145.964844 144.632812 142.019531 139.054688 138.726562 C 142.300781 144.332031 146.207031 149.433594 150.773438 154.03125 C 155.335938 158.628906 160.40625 162.574219 165.988281 165.863281 Z M 165.988281 165.867188 " fill-opacity="1" fill-rule="nonzero"/><path fill="#ffffff" d="M 208.996094 209.175781 C 212.246094 214.78125 216.152344 219.882812 220.714844 224.480469 C 225.277344 229.078125 230.351562 233.023438 235.929688 236.3125 C 232.679688 230.710938 228.773438 225.609375 224.210938 221.011719 C 219.648438 216.414062 214.574219 212.46875 208.996094 209.175781 Z M 208.996094 209.175781 " fill-opacity="1" fill-rule="nonzero"/><path fill="#ffffff" d="M 236.269531 139.097656 C 230.664062 142.347656 225.5625 146.253906 220.964844 150.816406 C 216.367188 155.378906 212.421875 160.453125 209.132812 166.035156 C 214.738281 162.785156 219.839844 158.878906 224.4375 154.316406 C 229.035156 149.753906 232.980469 144.679688 236.269531 139.097656 Z M 236.269531 139.097656 " fill-opacity="1" fill-rule="nonzero"/><path fill="#ffffff" d="M 138.6875 235.949219 C 144.292969 232.699219 149.394531 228.792969 153.992188 224.230469 C 158.589844 219.664062 162.535156 214.59375 165.824219 209.011719 C 160.21875 212.261719 155.117188 216.167969 150.519531 220.734375 C 145.921875 225.296875 141.976562 230.371094 138.6875 235.949219 Z M 138.6875 235.949219 " fill-opacity="1" fill-rule="nonzero"/><g clip-path="url(#5f52e48f7a)"><path fill="#ffffff" d="M 110.039062 183.386719 C 99.925781 183.324219 89.972656 184.570312 80.179688 187.121094 C 89.949219 189.742188 99.886719 191.0625 110 191.074219 C 120.117188 191.136719 130.070312 189.894531 139.859375 187.34375 C 130.09375 184.722656 120.152344 183.402344 110.039062 183.386719 Z M 110.039062 183.386719 " fill-opacity="1" fill-rule="nonzero"/></g><g clip-path="url(#48999e2462)"><path fill="#ffffff" d="M 264.945312 183.96875 C 254.828125 183.90625 244.875 185.152344 235.085938 187.703125 C 239.949219 188.996094 244.878906 189.972656 249.867188 190.636719 C 254.859375 191.296875 259.871094 191.640625 264.90625 191.660156 C 269.941406 191.675781 274.957031 191.375 279.953125 190.75 C 284.949219 190.125 289.882812 189.183594 294.757812 187.925781 C 284.996094 185.304688 275.054688 183.984375 264.945312 183.96875 Z M 264.945312 183.96875 " fill-opacity="1" fill-rule="nonzero"/></g><g clip-path="url(#2a799508d7)"><path fill="#ffffff" d="M 191.613281 110.085938 C 191.671875 99.96875 190.429688 90.015625 187.886719 80.226562 C 186.589844 85.089844 185.609375 90.019531 184.949219 95.011719 C 184.285156 100.003906 183.945312 105.015625 183.925781 110.050781 C 183.90625 115.085938 184.207031 120.101562 184.832031 125.097656 C 185.457031 130.09375 186.398438 135.03125 187.65625 139.90625 C 190.28125 130.140625 191.597656 120.199219 191.613281 110.085938 Z M 191.613281 110.085938 " fill-opacity="1" fill-rule="nonzero"/></g><g clip-path="url(#b9cbca2a00)"><path fill="#ffffff" d="M 183.34375 264.960938 C 183.28125 275.074219 184.523438 285.03125 187.074219 294.820312 C 188.367188 289.953125 189.347656 285.027344 190.007812 280.035156 C 190.671875 275.042969 191.011719 270.03125 191.03125 264.996094 C 191.050781 259.960938 190.746094 254.945312 190.121094 249.949219 C 189.496094 244.953125 188.554688 240.019531 187.296875 235.144531 C 184.675781 244.910156 183.359375 254.847656 183.34375 264.960938 Z M 183.34375 264.960938 " fill-opacity="1" fill-rule="nonzero"/></g><path fill="#ffffff" d="M 224.992188 187.523438 C 224.96875 187.855469 225.015625 188.179688 225.128906 188.496094 C 225.242188 188.8125 225.414062 189.089844 225.644531 189.335938 C 225.871094 189.578125 226.140625 189.769531 226.445312 189.902344 C 226.753906 190.035156 227.074219 190.101562 227.410156 190.101562 C 227.746094 190.101562 228.066406 190.035156 228.375 189.902344 C 228.679688 189.769531 228.949219 189.578125 229.179688 189.335938 C 229.40625 189.089844 229.578125 188.8125 229.691406 188.496094 C 229.804688 188.179688 229.851562 187.855469 229.828125 187.523438 C 229.851562 187.1875 229.804688 186.863281 229.691406 186.546875 C 229.578125 186.234375 229.40625 185.953125 229.179688 185.710938 C 228.949219 185.464844 228.679688 185.277344 228.375 185.144531 C 228.066406 185.011719 227.746094 184.945312 227.410156 184.945312 C 227.074219 184.945312 226.753906 185.011719 226.445312 185.144531 C 226.140625 185.277344 225.871094 185.464844 225.644531 185.710938 C 225.414062 185.953125 225.242188 186.234375 225.128906 186.546875 C 225.015625 186.863281 224.96875 187.1875 224.992188 187.523438 Z M 224.992188 187.523438 " fill-opacity="1" fill-rule="nonzero"/><path fill="#ffffff" d="M 145.132812 187.523438 C 145.105469 187.859375 145.148438 188.1875 145.257812 188.507812 C 145.367188 188.824219 145.539062 189.109375 145.769531 189.359375 C 145.996094 189.605469 146.265625 189.796875 146.578125 189.933594 C 146.886719 190.070312 147.210938 190.136719 147.546875 190.136719 C 147.886719 190.136719 148.210938 190.070312 148.519531 189.933594 C 148.828125 189.796875 149.097656 189.605469 149.328125 189.359375 C 149.554688 189.109375 149.726562 188.824219 149.835938 188.507812 C 149.949219 188.1875 149.988281 187.859375 149.964844 187.523438 C 149.988281 187.1875 149.949219 186.859375 149.835938 186.539062 C 149.726562 186.21875 149.554688 185.933594 149.328125 185.6875 C 149.097656 185.4375 148.828125 185.246094 148.519531 185.113281 C 148.210938 184.976562 147.886719 184.910156 147.546875 184.910156 C 147.210938 184.910156 146.886719 184.976562 146.578125 185.113281 C 146.265625 185.246094 145.996094 185.4375 145.769531 185.6875 C 145.539062 185.933594 145.367188 186.21875 145.257812 186.539062 C 145.148438 186.859375 145.105469 187.1875 145.132812 187.523438 Z M 145.132812 187.523438 " fill-opacity="1" fill-rule="nonzero"/><path fill="#ffffff" d="M 187.476562 150.007812 C 187.8125 150.03125 188.136719 149.984375 188.453125 149.871094 C 188.765625 149.757812 189.046875 149.585938 189.289062 149.359375 C 189.535156 149.128906 189.722656 148.859375 189.855469 148.554688 C 189.988281 148.246094 190.054688 147.925781 190.054688 147.589844 C 190.054688 147.253906 189.988281 146.933594 189.855469 146.625 C 189.722656 146.320312 189.535156 146.050781 189.289062 145.820312 C 189.046875 145.59375 188.765625 145.421875 188.453125 145.308594 C 188.136719 145.195312 187.8125 145.148438 187.476562 145.171875 C 187.144531 145.148438 186.820312 145.195312 186.503906 145.308594 C 186.1875 145.421875 185.910156 145.59375 185.664062 145.820312 C 185.421875 146.050781 185.230469 146.320312 185.097656 146.625 C 184.964844 146.933594 184.898438 147.253906 184.898438 147.589844 C 184.898438 147.925781 184.964844 148.246094 185.097656 148.554688 C 185.230469 148.859375 185.421875 149.128906 185.664062 149.359375 C 185.910156 149.585938 186.1875 149.757812 186.503906 149.871094 C 186.820312 149.984375 187.144531 150.03125 187.476562 150.007812 Z M 187.476562 150.007812 " fill-opacity="1" fill-rule="nonzero"/><path fill="#ffffff" d="M 187.476562 225.035156 C 187.144531 225.015625 186.820312 225.0625 186.503906 225.175781 C 186.1875 225.289062 185.910156 225.457031 185.664062 225.6875 C 185.421875 225.917969 185.230469 226.183594 185.097656 226.492188 C 184.964844 226.800781 184.898438 227.121094 184.898438 227.457031 C 184.898438 227.789062 184.964844 228.109375 185.097656 228.417969 C 185.230469 228.726562 185.421875 228.992188 185.664062 229.222656 C 185.910156 229.453125 186.1875 229.625 186.503906 229.738281 C 186.820312 229.847656 187.144531 229.894531 187.476562 229.875 C 187.8125 229.894531 188.136719 229.847656 188.453125 229.738281 C 188.765625 229.625 189.046875 229.453125 189.289062 229.222656 C 189.535156 228.992188 189.722656 228.726562 189.855469 228.417969 C 189.988281 228.109375 190.054688 227.789062 190.054688 227.457031 C 190.054688 227.121094 189.988281 226.800781 189.855469 226.492188 C 189.722656 226.183594 189.535156 225.917969 189.289062 225.6875 C 189.046875 225.457031 188.765625 225.289062 188.453125 225.175781 C 188.136719 225.0625 187.8125 225.015625 187.476562 225.035156 Z M 187.476562 225.035156 " fill-opacity="1" fill-rule="nonzero"/><path fill="#ffffff" d="M 205.964844 186.605469 C 197.054688 184.960938 192.914062 182.738281 190.582031 176.179688 C 189.039062 171.855469 188.285156 165.640625 187.476562 156.453125 C 186.671875 165.640625 185.921875 171.855469 184.378906 176.179688 C 181.792969 183.441406 176.992188 185.378906 165.988281 187.128906 C 165.136719 187.261719 164.246094 187.394531 163.316406 187.53125 C 164.25 187.664062 165.140625 187.800781 165.988281 187.9375 C 177.878906 189.816406 182.527344 191.917969 184.960938 200.730469 C 186.125 204.929688 186.777344 210.652344 187.476562 218.601562 C 188.179688 210.640625 188.835938 204.929688 189.996094 200.730469 C 192.214844 192.714844 196.269531 190.246094 205.964844 188.449219 C 207.679688 188.128906 209.5625 187.835938 211.644531 187.53125 C 209.5625 187.21875 207.679688 186.925781 205.964844 186.605469 Z M 205.964844 186.605469 " fill-opacity="1" fill-rule="nonzero"/></svg>