<svg xmlns="http://www.w3.org/2000/svg" xmlns:xlink="http://www.w3.org/1999/xlink" width="500" zoomAndPan="magnify" viewBox="0 0 375 374.999991" height="500" preserveAspectRatio="xMidYMid meet" version="1.0"><defs><clipPath id="e00e82e901"><path d="M 182 73.351562 L 272 73.351562 L 272 187 L 182 187 Z M 182 73.351562 " clip-rule="nonzero"/></clipPath><clipPath id="3b67a33c39"><path d="M 188 182 L 300.242188 182 L 300.242188 271 L 188 271 Z M 188 182 " clip-rule="nonzero"/></clipPath><clipPath id="eecc80c9f9"><path d="M 74.492188 104 L 187 104 L 187 193 L 74.492188 193 Z M 74.492188 104 " clip-rule="nonzero"/></clipPath><clipPath id="ab1e893da7"><path d="M 103 188 L 193 188 L 193 301.351562 L 103 301.351562 Z M 103 188 " clip-rule="nonzero"/></clipPath></defs><g clip-path="url(#e00e82e901)"><path fill="#ffffff" d="M 249.257812 186.078125 C 255.214844 182.550781 263.0625 178.992188 271.546875 178.078125 C 271.113281 177.460938 270.625 176.875 270.078125 176.328125 L 221.417969 127.667969 C 189.707031 95.957031 193.351562 73.355469 193.351562 73.355469 C 166.378906 100.328125 198.84375 135.664062 198.84375 135.664062 L 249.257812 186.078125 " fill-opacity="1" fill-rule="nonzero"/></g><g clip-path="url(#3b67a33c39)"><path fill="#ffffff" d="M 238.164062 198.828125 L 188.015625 248.976562 C 191.550781 254.671875 195.335938 262.398438 196.628906 270.859375 C 196.929688 270.609375 197.222656 270.34375 197.503906 270.0625 L 246.160156 221.402344 C 277.875 189.691406 300.472656 193.335938 300.472656 193.335938 C 273.5 166.363281 238.164062 198.828125 238.164062 198.828125 " fill-opacity="1" fill-rule="nonzero"/></g><g clip-path="url(#eecc80c9f9)"><path fill="#ffffff" d="M 178.328125 104.09375 C 178.03125 104.34375 177.738281 104.609375 177.457031 104.890625 L 128.796875 153.550781 C 97.082031 185.261719 74.484375 181.617188 74.484375 181.617188 C 101.457031 208.589844 136.792969 176.125 136.792969 176.125 L 186.941406 125.976562 C 183.40625 120.28125 179.621094 112.554688 178.328125 104.09375 " fill-opacity="1" fill-rule="nonzero"/></g><g clip-path="url(#ab1e893da7)"><path fill="#ffffff" d="M 176.113281 239.289062 L 125.699219 188.875 C 119.746094 192.402344 111.894531 195.960938 103.414062 196.875 C 103.847656 197.488281 104.332031 198.078125 104.882812 198.625 L 153.539062 247.285156 C 185.253906 278.996094 181.605469 301.597656 181.605469 301.597656 C 208.582031 274.621094 176.113281 239.289062 176.113281 239.289062 " fill-opacity="1" fill-rule="nonzero"/></g></svg>