<svg xmlns="http://www.w3.org/2000/svg" xmlns:xlink="http://www.w3.org/1999/xlink" width="500" zoomAndPan="magnify" viewBox="0 0 375 374.999991" height="500" preserveAspectRatio="xMidYMid meet" version="1.0"><path fill="#ffffff" d="M 187.5 201.582031 C 128.734375 315.292969 246.265625 315.292969 187.5 201.582031 Z M 187.5 201.582031 " fill-opacity="1" fill-rule="nonzero"/><path fill="#ffffff" d="M 177.144531 197.855469 C 55.980469 235.910156 139.089844 319.019531 177.144531 197.855469 Z M 177.144531 197.855469 " fill-opacity="1" fill-rule="nonzero"/><path fill="#ffffff" d="M 197.855469 197.855469 C 235.910156 319.019531 319.019531 235.910156 197.855469 197.855469 Z M 197.855469 197.855469 " fill-opacity="1" fill-rule="nonzero"/><path fill="#ffffff" d="M 173.417969 187.5 C 59.707031 128.734375 59.707031 246.265625 173.417969 187.5 Z M 173.417969 187.5 " fill-opacity="1" fill-rule="nonzero"/><path fill="#ffffff" d="M 197.855469 177.144531 C 319.019531 139.089844 235.910156 55.980469 197.855469 177.144531 Z M 197.855469 177.144531 " fill-opacity="1" fill-rule="nonzero"/><path fill="#ffffff" d="M 201.582031 187.5 C 315.292969 246.265625 315.292969 128.734375 201.582031 187.5 Z M 201.582031 187.5 " fill-opacity="1" fill-rule="nonzero"/><path fill="#ffffff" d="M 177.144531 177.144531 C 139.089844 55.980469 55.980469 139.089844 177.144531 177.144531 Z M 177.144531 177.144531 " fill-opacity="1" fill-rule="nonzero"/><path fill="#ffffff" d="M 187.5 173.417969 C 246.265625 59.707031 128.734375 59.707031 187.5 173.417969 Z M 187.5 173.417969 " fill-opacity="1" fill-rule="nonzero"/></svg>