<svg xmlns="http://www.w3.org/2000/svg" xmlns:xlink="http://www.w3.org/1999/xlink" width="500" zoomAndPan="magnify" viewBox="0 0 375 374.999991" height="500" preserveAspectRatio="xMidYMid meet" version="1.0"><path fill="#ffffff" d="M 77.691406 190.640625 C 77.691406 190.640625 168.664062 184.414062 169.285156 282.238281 C 71.460938 281.617188 77.691406 190.640625 77.691406 190.640625 Z M 77.691406 190.640625 " fill-opacity="1" fill-rule="nonzero"/><path fill="#ffffff" d="M 174.609375 287.5625 L 169.253906 287.523438 C 137.699219 287.324219 113.160156 278.019531 96.304688 259.859375 C 69.921875 231.433594 72.304688 191.945312 72.417969 190.285156 L 72.734375 185.695312 L 77.332031 185.367188 C 77.332031 185.367188 78.625 185.277344 80.917969 185.277344 C 96.453125 185.277344 173.988281 189.953125 174.578125 282.203125 Z M 82.941406 195.871094 C 83.238281 206.667969 85.917969 233.167969 104.121094 252.742188 C 117.945312 267.59375 138.027344 275.679688 163.863281 276.816406 C 160.6875 204.300781 103.808594 196.320312 82.941406 195.871094 Z M 82.941406 195.871094 " fill-opacity="1" fill-rule="nonzero"/><path fill="#ffffff" d="M 186.054688 94.382812 C 186.054688 94.382812 254.785156 154.300781 186.054688 223.917969 C 117.324219 154.300781 186.054688 94.382812 186.054688 94.382812 Z M 186.054688 94.382812 " fill-opacity="1" fill-rule="nonzero"/><path fill="#ffffff" d="M 186.054688 231.4375 L 182.292969 227.628906 C 160.121094 205.175781 149.347656 181.238281 150.273438 156.484375 C 151.726562 117.726562 181.320312 91.492188 182.578125 90.394531 L 186.054688 87.367188 L 189.527344 90.394531 C 190.789062 91.492188 220.382812 117.726562 221.835938 156.484375 C 222.757812 181.238281 211.988281 205.175781 189.8125 227.628906 Z M 186.054688 101.804688 C 178.621094 109.65625 161.796875 130.285156 160.835938 156.976562 C 160.109375 177.253906 168.585938 197.171875 186.054688 216.246094 C 203.519531 197.171875 211.996094 177.253906 211.269531 156.976562 C 210.3125 130.285156 193.488281 109.65625 186.054688 101.804688 Z M 186.054688 101.804688 " fill-opacity="1" fill-rule="nonzero"/><path fill="#ffffff" d="M 296.976562 190.640625 C 296.976562 190.640625 206.011719 184.414062 205.382812 282.238281 C 303.210938 281.617188 296.976562 190.640625 296.976562 190.640625 Z M 296.976562 190.640625 " fill-opacity="1" fill-rule="nonzero"/><path fill="#ffffff" d="M 200.058594 287.5625 L 200.09375 282.203125 C 200.6875 189.953125 278.21875 185.277344 293.753906 185.277344 C 296.042969 185.277344 297.335938 185.367188 297.335938 185.367188 L 301.921875 185.695312 L 302.253906 190.285156 C 302.363281 191.945312 304.746094 231.425781 278.363281 259.859375 C 261.515625 278.019531 236.972656 287.324219 205.410156 287.523438 Z M 291.742188 195.871094 C 270.875 196.320312 213.984375 204.285156 210.800781 276.8125 C 236.683594 275.679688 256.785156 267.566406 270.613281 252.664062 C 288.835938 233.03125 291.46875 206.632812 291.742188 195.871094 Z M 291.742188 195.871094 " fill-opacity="1" fill-rule="nonzero"/></svg>