<svg xmlns="http://www.w3.org/2000/svg" xmlns:xlink="http://www.w3.org/1999/xlink" width="500" zoomAndPan="magnify" viewBox="0 0 375 374.999991" height="500" preserveAspectRatio="xMidYMid meet" version="1.0"><defs><clipPath id="e6dd312ecb"><path d="M 82.527344 82.527344 L 292.527344 82.527344 L 292.527344 292.527344 L 82.527344 292.527344 Z M 82.527344 82.527344 " clip-rule="nonzero"/></clipPath></defs><g clip-path="url(#e6dd312ecb)"><path fill="#ffffff" d="M 268.953125 82.527344 C 234.058594 82.527344 187.234375 106.46875 155.792969 147.625 L 129.726562 147.625 C 110.894531 147.625 100.097656 161.683594 92.667969 176.550781 L 82.714844 196.449219 L 129.726562 196.449219 L 154.140625 220.859375 L 178.550781 245.273438 L 178.550781 292.285156 L 198.449219 282.335938 C 213.316406 274.902344 227.375 264.105469 227.375 245.273438 L 227.375 219.207031 C 268.535156 187.765625 292.472656 140.941406 292.472656 106.050781 L 292.472656 82.527344 Z M 227.375 131.351562 C 236.363281 131.351562 243.648438 138.636719 243.648438 147.625 C 243.648438 156.613281 236.363281 163.898438 227.375 163.898438 C 218.386719 163.898438 211.101562 156.613281 211.101562 147.625 C 211.101562 138.636719 218.386719 131.351562 227.375 131.351562 Z M 121.589844 229 L 113.453125 237.136719 C 101.699219 248.890625 97.179688 277.820312 97.179688 277.820312 C 97.179688 277.820312 124.8125 274.597656 137.867188 261.546875 L 146.003906 253.410156 Z M 121.589844 229 " fill-opacity="1" fill-rule="nonzero"/></g></svg>