<svg xmlns="http://www.w3.org/2000/svg" xmlns:xlink="http://www.w3.org/1999/xlink" width="500" zoomAndPan="magnify" viewBox="0 0 375 374.999991" height="500" preserveAspectRatio="xMidYMid meet" version="1.0"><path fill="#ffffff" d="M 167.101562 76.441406 C 159.441406 75.113281 150.996094 78.695312 147.074219 85.511719 C 145.972656 87.277344 144.636719 89.796875 142.109375 89.238281 C 135.375 88.117188 128.246094 88.855469 122.328125 92.4375 C 111.867188 98.261719 106.230469 112.339844 111.640625 123.40625 C 113.234375 126.09375 111.015625 129.777344 107.957031 129.882812 C 98.84375 131.296875 90.792969 139.105469 90.273438 148.507812 C 89.855469 152.566406 91.160156 156.507812 93.121094 160.011719 C 94.878906 162.496094 93.574219 166.3125 90.605469 167.085938 C 81.230469 170.339844 73.011719 181.042969 76.796875 191.128906 C 78.035156 195.492188 81.546875 198.472656 84.519531 201.671875 C 86.464844 203.984375 84.4375 206.984375 84.042969 209.46875 C 88.644531 204.300781 95.003906 201.011719 101.816406 199.945312 C 106.722656 187.214844 121.628906 179.675781 134.789062 183.371094 C 138.949219 184.890625 138.542969 191.808594 134.097656 192.675781 C 130.007812 192.6875 125.789062 191.476562 121.824219 193.074219 C 115.464844 194.96875 111.300781 200.804688 109.570312 206.949219 C 108.570312 209.988281 104.863281 209.476562 102.371094 209.953125 C 94.546875 210.828125 88.335938 217.695312 87.28125 225.359375 C 90.699219 228.089844 89.488281 232.851562 91.4375 236.390625 C 94.972656 244.507812 104.121094 249.0625 112.75 248.304688 C 115.433594 247.917969 117.960938 250.109375 117.863281 252.859375 C 116.96875 257.328125 114.628906 261.714844 115.5625 266.40625 C 116.933594 275.90625 125.777344 283.421875 135.320312 283.578125 C 138.652344 283.273438 142.1875 284.359375 143.535156 287.703125 C 149.035156 298.316406 164.03125 301.261719 173.667969 294.628906 C 179.640625 290.867188 183.03125 283.726562 182.625 276.730469 C 182.453125 260.566406 182.875 244.378906 182.421875 228.238281 C 180.097656 223.945312 180.96875 218.726562 178.453125 214.5 C 174.453125 206.746094 165.246094 202.484375 156.710938 203.515625 C 148.40625 204.34375 140.46875 209.738281 137.511719 217.707031 C 146.613281 220.621094 154.445312 229.277344 153.492188 239.277344 C 153.019531 243.734375 145.785156 244.4375 144.359375 240.289062 C 143.699219 237.148438 143.679688 233.589844 141.296875 231.140625 C 136.785156 225.597656 127.296875 225.789062 123.011719 231.503906 C 120.609375 234.109375 121.109375 237.886719 119.949219 240.992188 C 117.863281 244.390625 111.570312 243.414062 111.109375 239.257812 C 110.179688 229.144531 118.171875 219.851562 127.863281 217.808594 C 130.640625 206.675781 139.980469 197.816406 151.113281 195.261719 C 162.269531 192.109375 174.726562 195.863281 182.660156 204.226562 C 182.570312 181.875 182.59375 159.507812 182.640625 137.15625 C 173.503906 144.738281 160.796875 148.445312 149.199219 145 C 143.929688 143.234375 138.316406 141.109375 134.585938 136.804688 C 132.171875 133.175781 136.660156 128.246094 140.457031 129.9375 C 143.734375 131.917969 146.839844 134.289062 150.570312 135.386719 C 158.152344 138.085938 166.890625 136.875 173.5 132.304688 C 178.328125 129.074219 182.921875 124.167969 183.058594 118.03125 C 183.125 110.085938 183.101562 102.140625 183.058594 94.195312 C 183.050781 85.398438 175.582031 77.789062 167.101562 76.441406 Z M 167.101562 76.441406 " fill-opacity="1" fill-rule="nonzero"/><path fill="#ffffff" d="M 290.980469 171.878906 C 288.835938 169.542969 290.875 166.414062 291.34375 163.832031 C 286.808594 169.054688 280.402344 172.320312 273.613281 173.398438 C 268.46875 186.058594 253.957031 193.960938 240.570312 190.648438 C 236.046875 189.535156 236.09375 182.257812 240.648438 181.195312 C 244.480469 181.015625 248.390625 182.363281 252.15625 181.058594 C 258.808594 179.4375 263.46875 173.554688 265.226562 167.164062 C 266.097656 163.886719 269.988281 164.386719 272.59375 163.910156 C 280.371094 162.992188 286.503906 156.167969 287.613281 148.5625 C 285.59375 146.792969 284.960938 144.289062 284.746094 141.726562 C 283.089844 131.886719 273.125 124.9375 263.375 125.574219 C 260.476562 126.152344 256.984375 124.53125 257.039062 121.210938 C 257.84375 116.382812 260.53125 111.652344 259.167969 106.628906 C 257.3125 96.65625 247.3125 89.503906 237.3125 90.226562 C 233.074219 90.917969 231.949219 86.15625 229.773438 83.617188 C 222.316406 74.152344 206.523438 73.703125 198.273438 82.359375 C 193.953125 87 191.460938 93.402344 191.777344 99.761719 C 191.84375 117.152344 191.757812 134.550781 191.8125 151.941406 C 191.855469 161.425781 199.769531 169.464844 208.882812 171.054688 C 219.378906 173.152344 231.066406 167.324219 234.988281 157.203125 C 226.054688 154.21875 218.335938 145.96875 218.890625 136.082031 C 218.871094 131.4375 226.019531 130.210938 227.980469 134.15625 C 228.808594 137.316406 228.613281 140.976562 231.03125 143.53125 C 235.40625 149.128906 244.835938 149.128906 249.257812 143.5625 C 251.671875 141 251.492188 137.308594 252.339844 134.109375 C 254.335938 130.234375 261.351562 131.445312 261.410156 136.035156 C 262.007812 146.058594 254.066406 155.023438 244.496094 157.085938 C 241.050781 172.140625 225.191406 182.070312 210.183594 180.507812 C 203.335938 179.960938 197.132812 176.5625 191.785156 172.449219 C 191.804688 190.078125 191.773438 207.703125 191.804688 225.34375 C 197.269531 224.992188 202.347656 222.476562 207.832031 222.292969 C 215.394531 222.011719 223.066406 224.730469 228.601562 229.921875 C 233.816406 234.910156 236.945312 241.835938 237.886719 248.945312 C 245.480469 253.421875 249.675781 263.863281 245.058594 271.84375 C 242.621094 275.277344 236.953125 272.59375 237.058594 268.75 C 237.117188 265.949219 238.210938 262.921875 236.707031 260.304688 C 234.757812 256.210938 229.28125 254.375 225.3125 256.675781 C 222.414062 257.992188 221.695312 261.378906 219.679688 263.554688 C 217.34375 265.585938 213.5 264.566406 212.289062 261.796875 C 210.90625 258.929688 212.867188 255.914062 214.328125 253.511719 C 217.378906 248.808594 222.84375 246.496094 228.203125 245.679688 C 226.027344 238.84375 220.496094 233.234375 213.34375 231.828125 C 206.078125 229.777344 199.457031 234.617188 192.269531 234.492188 C 192.289062 250.070312 192.203125 265.632812 192.300781 281.207031 C 192.640625 290.46875 201.109375 298.117188 210.167969 298.617188 C 217.660156 299.242188 225.140625 295.230469 229.085938 288.894531 C 230.175781 287.542969 230.910156 285.523438 232.804688 285.140625 C 234.664062 284.984375 236.511719 285.402344 238.371094 285.503906 C 249.386719 286.546875 260.78125 279.835938 264.875 269.484375 C 267.480469 263.476562 267.390625 256.4375 264.546875 250.542969 C 263.085938 247.644531 265.847656 244.332031 268.878906 244.355469 C 279.054688 242.675781 287.476562 232.65625 285.960938 222.171875 C 285.8125 218.445312 283.296875 215.460938 282.34375 211.980469 C 282.128906 208.523438 285.472656 207.253906 288.070312 206.15625 C 296.84375 202.335938 302.011719 191.53125 298.625 182.40625 C 297.375 178.078125 294.019531 174.996094 290.980469 171.878906 Z M 290.980469 171.878906 " fill-opacity="1" fill-rule="nonzero"/></svg>