<svg xmlns="http://www.w3.org/2000/svg" xmlns:xlink="http://www.w3.org/1999/xlink" width="500" zoomAndPan="magnify" viewBox="0 0 375 374.999991" height="500" preserveAspectRatio="xMidYMid meet" version="1.0"><defs><clipPath id="d882f0f1d2"><path d="M 55.703125 64.839844 L 302 64.839844 L 302 310.089844 L 55.703125 310.089844 Z M 55.703125 64.839844 " clip-rule="nonzero"/></clipPath><clipPath id="0cbef89041"><path d="M 174 85 L 318.953125 85 L 318.953125 192 L 174 192 Z M 174 85 " clip-rule="nonzero"/></clipPath></defs><g clip-path="url(#d882f0f1d2)"><path fill="#ffffff" d="M 285.242188 142.613281 L 269 152.921875 C 273.109375 163.667969 275.441406 175.292969 275.441406 187.488281 C 275.441406 241.105469 231.976562 284.566406 178.359375 284.566406 C 124.742188 284.566406 81.277344 241.105469 81.277344 187.488281 C 81.277344 133.871094 124.742188 90.410156 178.359375 90.410156 C 205.386719 90.410156 229.792969 101.492188 247.394531 119.308594 L 264.003906 108.753906 L 264.667969 100.511719 C 242.484375 78.5 212.007812 64.835938 178.359375 64.835938 C 110.726562 64.835938 55.703125 119.855469 55.703125 187.488281 C 55.703125 255.117188 110.726562 310.140625 178.359375 310.140625 C 245.996094 310.140625 301.019531 255.117188 301.019531 187.488281 C 301.019531 172.835938 298.378906 158.800781 293.636719 145.765625 L 285.242188 142.613281 " fill-opacity="1" fill-rule="nonzero"/></g><path fill="#ffffff" d="M 230.03125 165.632812 C 232.894531 172.363281 234.585938 179.710938 234.585938 187.488281 C 234.585938 218.539062 209.414062 243.710938 178.359375 243.710938 C 147.308594 243.710938 122.136719 218.539062 122.136719 187.488281 C 122.136719 156.4375 147.308594 131.265625 178.359375 131.265625 C 194.550781 131.265625 209.050781 138.1875 219.308594 149.132812 L 237.5 137.515625 C 223.269531 120.695312 202.070312 109.953125 178.359375 109.953125 C 135.609375 109.953125 100.824219 144.734375 100.824219 187.488281 C 100.824219 230.242188 135.609375 265.023438 178.359375 265.023438 C 221.113281 265.023438 255.894531 230.242188 255.894531 187.488281 C 255.894531 175.535156 253.097656 164.25 248.242188 154.136719 L 230.03125 165.632812 " fill-opacity="1" fill-rule="nonzero"/><path fill="#ffffff" d="M 194.003906 188.382812 C 193.535156 196.648438 186.742188 203.226562 178.359375 203.226562 C 169.667969 203.226562 162.625 196.175781 162.625 187.488281 C 162.625 178.800781 169.667969 171.75 178.359375 171.75 C 179.898438 171.75 181.34375 172.054688 182.742188 172.480469 L 202.761719 159.699219 C 196.234375 153.957031 187.710938 150.4375 178.359375 150.4375 C 157.933594 150.4375 141.3125 167.058594 141.3125 187.488281 C 141.3125 207.914062 157.933594 224.539062 178.359375 224.539062 C 198.785156 224.539062 215.40625 207.914062 215.40625 187.488281 C 215.40625 183.488281 214.714844 179.660156 213.535156 176.050781 L 194.003906 188.382812 " fill-opacity="1" fill-rule="nonzero"/><g clip-path="url(#0cbef89041)"><path fill="#ffffff" d="M 294.136719 141.402344 L 319.28125 125.4375 L 297.554688 117.953125 L 306.109375 112.550781 C 308.8125 110.832031 309.621094 107.242188 307.898438 104.527344 C 306.1875 101.824219 302.59375 101.023438 299.878906 102.742188 L 291.578125 108.042969 L 293.988281 85.636719 L 268.851562 101.605469 L 267.078125 123.683594 L 262.152344 126.835938 L 263.519531 114.109375 L 249.507812 123.015625 L 248.5 135.550781 L 177.007812 181.199219 C 177.007812 181.199219 172.910156 183.605469 175.75 188.449219 C 178.371094 192.898438 182.863281 190.375 182.863281 190.375 L 255.273438 144.652344 L 267.078125 149.089844 L 281.101562 140.195312 L 268.960938 136.007812 L 272.992188 133.464844 L 294.136719 141.402344 " fill-opacity="1" fill-rule="nonzero"/></g></svg>