<?xml version="1.0" encoding="UTF-8"?>
<!-- Generator: $$$/GeneralStr/196=Adobe Illustrator 27.6.0, SVG Export Plug-In . SVG Version: 6.00 Build 0)  -->
<svg xmlns="http://www.w3.org/2000/svg" xmlns:xlink="http://www.w3.org/1999/xlink" version="1.1" id="Ebene_0" x="0px" y="0px" width="301px" height="120px" viewBox="0 0 301 120" style="enable-background:new 0 0 301 120;" xml:space="preserve">
<style type="text/css">
	.st0{fill:#FFFFFF;}
</style>
<g>
	<path class="st0" d="M33.7,20.1h11.7v57.8H33.7V54.4H12.2v23.5H0.5V20.1h11.7v23.8h21.6V20.1z"></path>
	<path class="st0" d="M61.6,77.9V20.1h11.7v57.8H61.6z"></path>
	<path class="st0" d="M132.4,61.4c0,8-5.5,16.5-18.2,16.5H89.5V20.1h22.9c10.3,0,17,6.2,17,14.9c0,4.3-1.7,10.1-8,12   C128.7,48.3,132.4,54.8,132.4,61.4z M111.7,30.4h-10.6v12.7h10.6c3.7,0,6-2.4,6-6.4C117.7,33.2,115.8,30.4,111.7,30.4z M112.5,67.6   c5.5,0,8.1-3.5,8.1-7.4c0-3.6-2.4-7.4-8-7.4h-11.5v14.8H112.5z"></path>
	<path class="st0" d="M181,77.9l-4.7-13.8h-21.7l-4.6,13.8h-12.4l21.6-57.8h12.6l21.5,57.8H181z M158.1,53.9h14.8L165.5,32   L158.1,53.9z"></path>
	<path class="st0" d="M231.4,77.9l-13.8-20.7h-3.9v20.7H202V20.1h23.1c13.3,0,19,9.4,19,18.9c0,8.2-5.8,16.3-13.9,17.7l14.9,21.2   H231.4z M213.7,30.4v17.4h9.3c6.5,0,9.3-3.9,9.3-8.6c0-4.6-2.9-8.8-8.4-8.8H213.7z"></path>
	<g>
		<path class="st0" d="M7.6,96.9c0,1.5-1.1,2.8-2.9,2.8H0.5V89.6h3.8c1.7,0,2.7,1,2.7,2.6c0,0.9-0.3,1.8-1.3,2.1    C6.9,94.6,7.6,95.8,7.6,96.9z M4.3,90.8H1.8v3h2.5c0.9,0,1.4-0.6,1.4-1.5C5.7,91.5,5.2,90.8,4.3,90.8z M4.3,98.5    c1.2,0,1.9-0.8,1.9-1.7c0-0.9-0.6-1.8-1.8-1.8H1.8v3.5H4.3z"></path>
		<path class="st0" d="M19.7,96.3v-6.7h1.3v6.7c0,1.6,1.1,2.3,2.3,2.3c1.3,0,2.3-0.7,2.3-2.3v-6.7h1.3v6.7c0,2.3-1.7,3.6-3.7,3.6    C21.4,99.9,19.7,98.6,19.7,96.3z"></path>
		<path class="st0" d="M39.9,99.7V89.6h1.3v10.1H39.9z"></path>
		<path class="st0" d="M55.5,98.5h4.1v1.2h-5.5V89.6h1.3V98.5z"></path>
		<path class="st0" d="M75.4,89.6c2.9,0,4.6,2.2,4.6,5.1c0,2.9-1.7,5-4.6,5h-3.9V89.6H75.4z M75.4,98.5c2.1,0,3.2-1.6,3.2-3.8    c0-2.2-1.1-3.8-3.2-3.8h-2.6v7.6H75.4z"></path>
		<path class="st0" d="M111.6,89.6h1.6l-3.9,5.4v4.7H108v-4.7l-3.8-5.4h1.6l2.9,4.1L111.6,89.6z"></path>
		<path class="st0" d="M123.4,94.7c0-2.9,2.2-5.3,5.1-5.3c2.9,0,5.1,2.4,5.1,5.3c0,2.9-2.2,5.2-5.1,5.2    C125.7,99.9,123.4,97.6,123.4,94.7z M132.4,94.7c0-2.2-1.6-4-3.8-4c-2.1,0-3.8,1.8-3.8,4c0,2.2,1.6,4,3.8,4    C130.7,98.7,132.4,96.8,132.4,94.7z"></path>
		<path class="st0" d="M145.8,96.3v-6.7h1.3v6.7c0,1.6,1.1,2.3,2.3,2.3c1.3,0,2.3-0.7,2.3-2.3v-6.7h1.3v6.7c0,2.3-1.7,3.6-3.7,3.6    C147.5,99.9,145.8,98.6,145.8,96.3z"></path>
		<path class="st0" d="M171.3,99.7l-2.7-3.8h-1.3v3.8H166V89.6h3.8c2.2,0,3.1,1.6,3.1,3.2c0,1.5-0.8,3-2.6,3.2l2.7,3.8H171.3z     M167.3,90.8v3.8h2.1c1.5,0,2.1-0.8,2.1-1.9c0-1.1-0.7-1.9-1.7-1.9H167.3z"></path>
		<path class="st0" d="M204.9,90.8h-4.5v3.3h3.6v1.2h-3.6v4.3H199V89.6h5.9V90.8z"></path>
		<path class="st0" d="M216.8,96.3v-6.7h1.3v6.7c0,1.6,1.1,2.3,2.3,2.3c1.3,0,2.3-0.7,2.3-2.3v-6.7h1.3v6.7c0,2.3-1.7,3.6-3.7,3.6    C218.5,99.9,216.8,98.6,216.8,96.3z"></path>
		<path class="st0" d="M243.3,89.6v1.2h-3.1v8.9h-1.3v-8.9h-3.1v-1.2H243.3z"></path>
		<path class="st0" d="M255,96.3v-6.7h1.3v6.7c0,1.6,1.1,2.3,2.3,2.3c1.3,0,2.3-0.7,2.3-2.3v-6.7h1.3v6.7c0,2.3-1.7,3.6-3.7,3.6    C256.7,99.9,255,98.6,255,96.3z"></path>
		<path class="st0" d="M280.5,99.7l-2.7-3.8h-1.3v3.8h-1.3V89.6h3.8c2.2,0,3.1,1.6,3.1,3.2c0,1.5-0.8,3-2.6,3.2l2.7,3.8H280.5z     M276.5,90.8v3.8h2.1c1.5,0,2.1-0.8,2.1-1.9c0-1.1-0.7-1.9-1.7-1.9H276.5z"></path>
		<path class="st0" d="M295.7,98.5h4.8v1.2h-6.1V89.6h6v1.2h-4.6v3.3h4v1.2h-4V98.5z"></path>
	</g>
	<g>
		<g>
			<path class="st0" d="M300.3,77.7l-14.7-21c8.1-1.4,13.9-9.5,13.9-17.7c0-9.5-5.7-18.9-19-18.9h-23.1V31c1.6-0.7,6-2.4,8.5-2.9     c0.4-0.1,0.7,0.2,0.9,0.5c0.4,1.2,1.6,2.5,2.9,3c-1.8-1-2.4-2.6-2.4-4.8c0-0.5,0.5-0.9,1-0.8c3.8,0.6,6.7,1.9,8.9,3.7     c-0.4-0.6-1.1-1.3-1.9-1.8c-0.2-0.1-0.1-0.5,0.2-0.4c3.3,0.2,10.4,1.6,11.2,4.7c0-0.2,0-0.6-0.1-0.9c-0.1-0.2,0.2-0.3,0.3-0.2     c0.9,0.6,1.5,1.5,1.8,2.3c0.2,0.7-0.1,1.2,0,1.8c0,0.2-0.2,0.4-0.4,0.4c-0.5-0.1-1.1-0.3-1.6-0.5c-0.1,0-0.2-0.2,0-0.3     c0.1-0.1,0.2-0.2,0.3-0.4c-0.8,0.4-2-0.3-2.5-0.9c0,0-0.1-0.1-0.2,0c-0.2,0.2-0.5,0.3-0.8,0.2c-0.5-0.1-0.8-0.5-0.7-0.9     c0-0.2,0.2-0.4,0.4-0.5c0.1,0,0.1-0.1,0-0.1c-0.8-0.4-2.1-0.4-3.1-0.7c0.7,0.8,1.3,1,2,1.1c0,2.1,2.3,2.4,3.1,2.2     c2.4,1,7.8,2.3,9.4,4c0.7,0.7,0.9,1.6,1.1,3c0.1,0.8-0.9,0.6-1.2,0.1c-0.3-0.7-0.7-1.9-1.6-2.2c0,0.2-0.2,0.6-0.1,1     c0,0.1,0.1,0.2,0.2,0.3c0.6,0.4,1.5,1.6,1.8,2.2c0.1,0.2,0.1,0.4,0,0.6c-0.4,0.9-1.3,1.9-2.8,2.8c-0.5,0.4-1,1.2-2.5,1.8     c-0.2,0.1-0.4-0.2-0.3-0.3c0.2-0.2,0.3-0.4,0.4-0.7c0.1-0.1,0.2-0.2,0.3-0.3c0.4-0.1,1.1-0.4,0.6-0.7c-0.3-0.2-0.5-0.1-0.6,0.1     c-0.1,0.1-0.3,0.1-0.4,0c-0.2-0.4-0.6-0.7-1-0.9c-0.2-0.1-0.2-0.3-0.1-0.4c0.2-0.3,0.2-0.6,0.2-0.9c-0.2,0.9-1.6,1.8-2.8,2.1     c-0.2,0.1-0.3-0.2-0.2-0.3c1.1-1.1,1-2,1.1-2.7c0-0.2-0.1-0.4-0.3-0.5c-2.4-1.1-6.9-0.8-7.8,1.5c-0.3,0.9-0.2,2,0,2.9     c0,0.2-0.2,0.3-0.3,0.2c-0.7-0.7-1.2-1.6-1.3-2.8c-0.5,2.8,2.2,4.9,4.7,4c0.2-0.1,0.4,0.2,0.3,0.4c-0.2,0.5-0.9,1-1.8,0.8     c0.4,0.2,1.1,0.2,1.5,0.1c0,0,0.1,0,0.1,0c0.2,0.2,0.6,0.5,0.8,0.6c0.1,0,0.1,0.1,0.1,0.1c-0.1,0.3-0.3,0.7-0.7,0.9     c0.9-0.2,1-0.9,1.1-0.9c0.5-0.1,0.7-0.1,1.2-0.4c0.2-0.1,0.4,0.1,0.4,0.3c-0.1,0.4-0.5,0.7-1,1c-1.6,1.7-3.5,3.3-5.9,2.9     c-0.5-0.1-0.8-0.6-0.7-1.1c0.7-2.5-1-4.4-3.5-6.8c-1.4-1.3-4.3-3.6-5.6-5c-1.4-1.5-0.8-4.2,1.9-8.2c-3.9,4.3-4,7.5-2.2,9.1     c2.1,1.9,3.4,2.9,5.1,4.4h0c-7.3,0.2-12.4,3.2-15.5,6v3.8c4.1-4.8,8.7-8.1,15.1-8.7c0.2,0,0.2,0.2,0.1,0.3     c-8,2.9-15.1,12.5-15.1,20.8v8.7v0.3h11.7v-17v-3.7h3.9l2.5,3.8l11.3,16.9h13.7L300.3,77.7z M280.7,48.4c-0.3,0-0.6,0-0.8-0.1     c-0.3-0.1-0.5-0.3-0.6-0.6c-0.4-1.2-0.5-2.6-0.2-3.3c0.7-1.8,3.5-2.1,5.8-1.8c0.2,0,0.3,0.4,0,0.4c-4.2,1.1-3.9,3.1-3.7,4.7     C281.3,48.1,281,48.4,280.7,48.4z"></path>
		</g>
		<path class="st0" d="M257.4,38.5V41c1.3-2.6,4.1-4.7,7.1-6c0.1,0,0-0.2,0-0.1C261.8,35.5,259.3,36.5,257.4,38.5z"></path>
	</g>
</g>
</svg>
