<?xml version="1.0" encoding="UTF-8"?>
<!-- Generator: Adobe Illustrator 28.0.0, SVG Export Plug-In . SVG Version: 6.00 Build 0)  -->
<svg xmlns="http://www.w3.org/2000/svg" xmlns:xlink="http://www.w3.org/1999/xlink" version="1.1" id="Ebene_1" x="0px" y="0px" width="1500px" height="1500px" viewBox="0 0 1500 1500" style="enable-background:new 0 0 1500 1500;" xml:space="preserve">
<style type="text/css">
	.st0{fill:#FFFFFF;}
	.st1{fill:#003160;}
	.st2{fill:none;stroke:#003260;stroke-width:31;stroke-linecap:round;stroke-linejoin:round;}
	.st3{fill:none;stroke:#003260;stroke-width:31.9144;stroke-linecap:round;stroke-linejoin:round;}
</style>
<g>
	<rect class="st0" width="1500" height="1500"></rect>
</g>
<g>
	<g>
		<path class="st1" d="M173.43,1216.96h95.35v86.29h-95.35v46.68h231.33v-46.68h-94.02v-86.29h94.02v-46.68H173.43V1216.96z"></path>
		<path class="st1" d="M404.76,1105.49v-46.68H173.43v46.68H404.76z"></path>
		<path class="st1" d="M338.62,822.46c-26.2,0-52.37,14.44-57.42,43.97c-7.73-25.18-30.89-31.88-48-31.88    c-34.92,0-59.77,26.53-59.77,67.83v91.65h231.33v-98.72C404.76,844.26,370.5,822.46,338.62,822.46L338.62,822.46z M214.73,905.05    c0-16.45,11.07-23.85,25.18-23.85c15.79,0,25.51,9.05,25.51,23.85v42.29H214.7v-42.29H214.73z M363.47,902.05v45.33h-59.1v-45.99    c0-22.17,15.1-31.88,29.54-31.88c15.43,0,29.54,10.74,29.54,32.57L363.47,902.05z"></path>
		<path class="st1" d="M404.76,627.76v-49.03L173.43,664.7v50.35l231.33,86.29v-49.69l-55.4-18.47v-86.63L404.76,627.76z     M308.75,719.41l-87.62-29.54l87.62-29.54v59.1V719.41z"></path>
		<path class="st1" d="M404.76,426.3v-54.71l-84.94,59.77c-5.71-32.57-37.93-55.73-70.83-55.73c-37.93,0-75.56,22.83-75.56,75.89    v92.34h231.33v-46.68h-82.93v-15.79L404.76,426.3L404.76,426.3z M214.73,497.13v-40.97c0-21.84,16.78-33.57,35.25-33.57    s34.26,11.07,34.26,37.27v37.27L214.73,497.13L214.73,497.13z"></path>
		<path class="st1" d="M404.76,204.71V150l-84.94,59.77c-5.71-32.57-37.93-55.73-70.83-55.73c-37.93,0-75.56,22.83-75.56,75.89    v92.34h231.33v-46.68h-82.93v-15.79L404.76,204.71L404.76,204.71z M214.73,275.55v-40.97c0-21.84,16.78-33.57,35.25-33.57    s34.26,11.07,34.26,37.27v37.27H214.73z"></path>
	</g>
	<g>
		<path class="st1" d="M1322.42,1344.16l-305.93-434.78c168.95-29.57,289.05-196.74,289.05-367.5    c0-196.74-118.33-391.89-393.48-391.89H433.19v226.34c32.54-15.1,125.28-49.24,175.9-60.76c7.94-1.77,15.49,3.19,17.66,10.92    c7.55,25.81,33.15,51.01,60.55,62.35c-36.33-20.45-50.83-54.59-49.45-99.86c0.39-10.71,9.72-18.65,20.45-17.26    c79.8,11.91,139.38,38.92,185.43,75.83c-8.15-13.11-22.44-27.4-38.92-38.32c-4.18-2.77-1.99-9.53,3.19-9.14    c69.09,3.97,216.8,32.54,233.29,97.48c0.99-5.17,0.21-12.3-1.59-18.86c-1.2-3.97,3.58-7.16,6.74-4.75    c18.86,13.29,30.77,31.55,36.33,48.64c4.75,14.68-1.77,24.21,0.21,36.33c0.78,4.75-3.58,8.93-8.33,7.73    c-10.14-2.38-22.83-6.35-33.96-10.32c-2.77-0.99-3.58-4.96-0.99-6.56c2.98-1.77,4.96-4.75,6.56-7.34    c-16.96,8.87-41.63-5.38-52.58-19.07c-0.81-0.99-2.29-1.26-3.19-0.36c-4,3.97-10.35,5.96-17.29,4.72    c-10.14-1.77-17.08-10.14-15.49-18.47c0.81-4.96,4.39-8.81,9.23-10.77c1.08-0.45,1.2-1.99,0.15-2.5    c-16.18-7.64-44.37-8.24-63.77-15.52c15.49,17.26,26.59,21.63,40.7,22.83c-0.99,43.07,48.64,49.84,64.34,46.26    c50.02,21.63,162.6,48.25,195.96,82.59c14.29,14.68,18.47,32.97,23.22,62.74c2.77,17.26-18.47,12.3-25.81,2.2    c-6.74-13.69-14.68-39.31-33.96-45.06c-1.02,3.4-4.51,12.03-1.9,21.3c0.75,2.62,2.41,4.87,4.63,6.44    c12.06,8.45,30.5,32.36,37.3,45.51c2.17,4.18,2.35,9.02,0.51,13.35c-7.64,18.08-26.98,38.59-58.23,57.15    c-9.53,7.55-21.63,25.03-51.43,37.72c-4.36,1.77-8.15-3.19-5.56-6.95c3.16-4.51,5.87-9.26,8.03-13.96    c1.26-2.74,3.52-4.84,6.38-5.78c8.27-2.71,22.2-8.84,13.2-14.8c-6.41-4.24-9.96-1.29-12.69,2.59c-2.14,3.01-6.74,2.68-8.36-0.6    c-3.88-7.82-12.69-14.26-20.51-18.2c-3.13-1.56-3.94-5.53-1.86-8.33c4.78-6.5,3.52-12.81,3.37-18.92    c-4.96,17.87-33.36,37.12-58.17,44.06c-4.18,1.2-7.16-3.76-4.18-6.95c21.96-22.29,20.12-41.51,22.92-55.83    c0.84-4.33-1.56-8.6-5.59-10.38c-50.11-21.84-143.29-17.63-160.86,31.04c-6.35,17.87-4.57,41.51-0.21,60.55    c0.99,3.97-3.97,6.74-6.95,3.76c-14.29-14.89-24.42-33.75-26.41-58.17c-11.13,57.39,45.48,102.63,97.66,83.59    c4.75-1.77,9.14,3.19,6.95,7.55c-5.17,10.32-18.47,21.05-37.12,16.09c7.58,3.16,23.13,5.08,30.98,1.47    c1.02-0.48,2.14-0.45,3.01,0.24c3.91,3.16,12.15,10.59,17.33,12.51c1.2,0.45,1.77,1.62,1.29,2.8c-2.29,5.44-6.02,13.96-13.9,17.72    c19.64-4.18,21.05-19.07,23.43-19.46c10.32-2.38,14.68-1.59,25.42-7.94c4.18-2.38,9.32,1.38,7.94,6.17    c-2.77,8.54-10.32,15.28-21.24,20.24c-33.36,34.74-71.86,68.1-122.09,61.15c-10.53-1.38-17.08-11.7-14.11-21.84    c15.28-52.01-21.63-91.32-72.46-140.95c-28.57-27.79-90.14-74.83-116.13-102.84c-28.57-30.98-16.27-86.17,38.71-169.55    c-80.61,88.55-82.2,156.05-46.47,187.81c43.28,38.71,71.47,60.16,105.03,92.31h-0.21c-152.08,4.75-257.5,65.72-322.62,124.88    v79.41c85.96-98.66,181.46-168.95,312.48-180.86c3.76-0.39,4.75,4.96,1.38,6.17c-166.75,59.55-313.87,259.48-313.87,431.02v185.43    h242.01V919.76h81.78l52.61,79.23L1042.66,1350h283.91l-4.18-5.74L1322.42,1344.16z M916.42,736.25c-5.74,0-11.91-0.78-17.26-2.2    c-5.96-1.59-10.71-6.17-12.51-12.12c-7.73-25.81-10.14-53-4.18-68.49c14.11-36.73,71.68-43.49,119.92-37.33    c5.17,0.6,5.35,7.94,0.39,9.14c-86.75,23.22-80.4,63.34-75.83,98.27c0.99,6.95-3.97,12.69-10.53,12.69V736.25z"></path>
		<path class="st1" d="M433.19,530.76v52.01c27.19-53.42,85.18-98.09,147.32-124.28c1.77-0.78,0.99-3.37-0.99-2.98    C522.73,469.4,471.33,489.25,433.19,530.76z"></path>
	</g>
</g>
</svg>
